<svg width="1280" height="186" viewBox="0 0 1280 186" fill="none" xmlns="http://www.w3.org/2000/svg">
<path fill-rule="evenodd" clip-rule="evenodd" d="M-3 139.5L50.5417 143.375C104.083 147.25 211.167 155 318.25 139.5C425.333 124 532.417 85.25 639.5 73.625C746.583 62 853.667 77.5 960.75 100.75C1067.83 124 1174.92 155 1228.46 170.5L1282 186V0H1228.46C1174.92 0 1067.83 0 960.75 0C853.667 0 746.583 0 639.5 0C532.417 0 425.333 0 318.25 0C211.167 0 104.083 0 50.5417 0H-3V139.5Z" fill="#E6E4E0"/>
</svg>
