<svg xmlns="http://www.w3.org/2000/svg" width="1280" height="151" fill="none" viewBox="0 5 1280 151"><path fill="#031621" fill-rule="evenodd" d="M-17 91.4072H27.1422C70.2578 91.4072 158.542 91.4072 245.8 106.246C333.058 121.678 421.342 151.95 508.6 155.511C595.858 159.666 684.142 136.517 771.4 117.524C858.658 98.5299 946.942 83.691 1034.2 79.5361C1121.46 75.9748 1209.74 83.691 1252.86 87.2523L1297 91.4072V0H1252.86C1209.74 0 1121.46 0 1034.2 0C946.942 0 858.658 0 771.4 0C684.142 0 595.858 0 508.6 0C421.342 0 333.058 0 245.8 0C158.542 0 70.2578 0 27.1422 0H-17V91.4072Z" clip-rule="evenodd"/></svg>